<svg id="svg" xmlns="http://www.w3.org/2000/svg" xmlns:xlink="http://www.w3.org/1999/xlink" width="400" height="225.22522522522522" viewBox="0, 0, 400,225.22522522522522"><g id="svgg"><path id="path0" d="M147.359 84.176 C 146.086 84.391,140.856 84.576,135.736 84.587 C 125.550 84.608,118.497 85.270,109.843 87.018 C 106.742 87.644,102.317 88.350,100.010 88.586 C 94.172 89.183,88.904 90.935,86.502 93.079 C 85.384 94.078,84.215 94.895,83.906 94.895 C 83.597 94.895,83.474 95.580,83.635 96.418 C 83.840 97.492,83.595 98.117,82.804 98.541 C 81.016 99.498,81.313 101.724,83.167 101.259 C 84.324 100.969,84.577 101.084,84.309 101.780 C 84.088 102.358,84.525 102.929,85.542 103.393 C 87.523 104.295,87.246 105.229,84.788 105.934 C 82.888 106.479,82.210 107.444,83.634 107.579 C 84.047 107.618,83.596 107.820,82.632 108.029 C 81.668 108.238,80.773 108.731,80.642 109.125 C 80.263 110.263,84.620 110.772,88.241 110.013 C 92.096 109.204,92.947 109.490,89.680 110.496 C 88.419 110.885,87.013 111.323,86.555 111.470 C 85.875 111.688,85.902 111.936,86.706 112.824 C 87.796 114.028,87.462 114.715,85.786 114.715 C 83.479 114.715,84.814 115.859,87.538 116.218 C 92.084 116.816,92.389 116.972,89.189 117.066 C 81.629 117.287,93.798 119.809,102.102 119.742 C 105.240 119.717,107.184 119.859,106.421 120.058 C 104.137 120.655,104.885 121.598,107.943 121.978 C 111.336 122.399,110.590 122.591,104.505 122.865 C 98.664 123.127,76.753 125.449,76.354 125.848 C 75.155 127.047,78.432 128.128,84.097 128.401 C 90.529 128.710,91.311 129.704,85.135 129.721 C 83.236 129.726,81.682 130.000,81.682 130.330 C 81.682 130.661,82.628 130.931,83.784 130.931 C 85.436 130.931,85.886 131.171,85.886 132.053 C 85.886 133.033,86.722 133.275,92.492 133.961 C 100.159 134.873,101.420 135.877,94.199 135.320 C 90.873 135.064,89.423 135.143,89.685 135.567 C 89.897 135.910,93.521 136.379,97.738 136.608 C 101.955 136.838,109.595 137.559,114.715 138.211 C 126.047 139.653,154.354 140.525,154.354 139.431 C 154.354 139.006,153.251 138.736,151.502 138.732 C 147.580 138.723,144.102 138.092,144.492 137.461 C 144.670 137.173,148.381 136.980,152.738 137.033 C 157.096 137.086,159.782 137.238,158.709 137.371 C 153.909 137.967,157.575 138.465,166.665 138.452 C 176.438 138.439,180.130 137.797,172.823 137.382 C 169.643 137.201,169.849 137.158,174.174 137.100 C 176.982 137.063,178.941 137.168,178.529 137.335 C 176.898 137.993,177.917 138.739,180.445 138.739 C 183.056 138.739,184.533 137.939,183.037 137.336 C 182.622 137.169,198.904 137.009,219.219 136.981 C 257.832 136.927,271.547 136.651,281.081 135.735 C 284.219 135.433,289.696 135.007,293.253 134.788 C 299.149 134.425,303.036 133.333,298.434 133.333 C 295.925 133.333,296.492 132.781,299.381 132.411 C 302.001 132.076,302.851 131.656,302.397 130.923 C 302.219 130.634,303.342 130.315,304.893 130.214 C 308.010 130.011,309.345 128.568,306.507 128.470 C 305.571 128.437,306.537 128.070,308.655 127.654 C 310.793 127.233,312.825 126.459,313.225 125.911 C 313.720 125.234,314.961 124.894,317.183 124.827 L 320.420 124.729 317.117 124.324 C 314.122 123.957,314.038 123.910,316.216 123.812 C 323.837 123.473,318.671 122.609,306.680 122.218 C 299.207 121.974,293.093 121.538,293.093 121.248 C 293.093 120.958,294.444 120.721,296.096 120.721 C 297.748 120.721,299.099 120.450,299.099 120.120 C 299.099 119.790,298.018 119.520,296.697 119.520 C 295.375 119.520,294.294 119.249,294.294 118.919 C 294.294 118.589,293.294 118.318,292.072 118.318 C 288.008 118.318,290.849 117.251,295.973 116.853 C 300.860 116.474,303.904 115.741,303.904 114.943 C 303.904 114.722,302.156 114.704,300.020 114.904 C 296.265 115.254,294.401 114.675,296.550 113.826 C 297.126 113.598,301.922 113.264,307.207 113.085 C 316.899 112.756,322.306 111.765,314.604 111.730 C 306.926 111.695,305.078 109.403,312.613 109.259 C 319.365 109.131,322.792 108.504,323.011 107.357 C 323.133 106.717,322.842 106.306,322.266 106.306 C 321.747 106.306,321.321 106.577,321.321 106.907 C 321.321 107.669,312.162 107.711,311.381 106.953 C 311.068 106.648,310.000 106.307,309.009 106.194 L 307.207 105.990 309.257 104.881 C 310.384 104.271,312.904 103.627,314.856 103.450 C 319.289 103.048,318.238 102.124,313.334 102.111 C 311.418 102.106,309.120 101.730,308.228 101.276 C 307.336 100.821,304.444 100.255,301.802 100.017 C 299.159 99.780,296.592 99.237,296.096 98.811 C 295.601 98.386,293.033 97.807,290.390 97.526 L 285.586 97.014 291.592 96.627 C 300.624 96.044,305.706 95.391,305.706 94.813 C 305.706 94.528,305.188 94.294,304.555 94.294 C 303.921 94.294,303.313 94.038,303.203 93.724 C 303.093 93.411,298.949 93.017,293.994 92.850 C 248.308 91.305,239.479 90.836,240.006 89.984 C 240.209 89.654,240.953 89.537,241.659 89.722 C 243.072 90.093,254.100 88.937,254.780 88.347 C 257.041 86.385,214.809 84.810,171.772 85.253 C 156.712 85.407,154.844 85.350,155.219 84.743 C 155.650 84.046,150.374 83.665,147.359 84.176 M266.282 86.903 C 266.483 87.104,268.341 87.468,270.411 87.711 L 274.174 88.155 269.670 88.112 C 263.339 88.053,255.255 88.899,255.255 89.621 C 255.255 90.021,258.162 90.079,263.814 89.789 C 274.549 89.240,283.066 89.414,283.547 90.192 C 283.920 90.797,312.455 90.850,316.366 90.254 C 319.632 89.756,318.549 88.893,314.565 88.819 C 310.733 88.747,302.394 87.945,303.754 87.779 C 304.167 87.729,304.505 87.434,304.505 87.124 C 304.505 86.785,296.819 86.556,285.211 86.549 C 274.599 86.543,266.081 86.702,266.282 86.903 M141.141 107.508 C 141.827 107.951,141.584 108.092,140.126 108.099 C 139.071 108.104,138.042 107.838,137.838 107.508 C 137.362 106.738,139.950 106.738,141.141 107.508 M292.192 137.030 C 276.153 138.499,268.276 140.144,272.944 141.049 C 273.676 141.191,273.869 141.019,273.552 140.505 C 273.297 140.092,273.332 139.898,273.631 140.075 C 275.081 140.929,297.419 138.513,302.402 136.962 C 304.581 136.284,299.999 136.315,292.192 137.030 M196.697 138.138 C 196.486 138.479,196.991 138.739,197.862 138.739 C 198.708 138.739,199.399 138.468,199.399 138.138 C 199.399 137.808,198.875 137.538,198.234 137.538 C 197.592 137.538,196.901 137.808,196.697 138.138 M217.417 139.636 L 206.306 140.355 222.222 140.598 C 251.251 141.041,257.725 140.875,256.406 139.721 C 255.670 139.077,227.028 139.014,217.417 139.636 M259.009 140.364 C 256.312 140.883,257.589 141.914,260.444 141.523 C 261.977 141.313,263.885 141.141,264.684 141.141 C 265.500 141.141,265.974 140.878,265.766 140.541 C 265.401 139.950,261.664 139.852,259.009 140.364 " stroke="none" fill="#52325b" fill-rule="evenodd"></path></g></svg>