<svg id="svg" xmlns="http://www.w3.org/2000/svg" xmlns:xlink="http://www.w3.org/1999/xlink" width="400" height="130.18867924528303" viewBox="0, 0, 400,130.18867924528303"><g id="svgg"><path id="path0" d="M92.842 0.190 C 92.204 0.287,91.506 0.461,91.292 0.575 C 91.078 0.690,90.380 0.945,89.741 1.143 C 85.460 2.469,81.222 6.611,78.566 12.062 C 77.125 15.020,76.973 15.524,75.198 23.181 C 74.359 26.799,73.139 30.458,72.772 30.458 C 72.716 30.458,71.925 30.028,71.013 29.503 C 67.313 27.370,61.744 25.420,57.775 24.867 C 51.176 23.949,45.414 23.966,41.120 24.917 C 40.498 25.054,39.880 25.139,39.748 25.104 C 38.427 24.759,33.672 27.186,28.706 30.742 C 19.184 37.558,11.835 40.444,2.830 40.903 L 1.415 40.975 0.812 41.577 C 0.115 42.274,0.179 41.863,0.055 46.429 C -0.183 55.191,3.533 63.861,11.364 72.818 C 12.065 73.619,12.672 74.438,12.713 74.637 C 12.767 74.897,13.222 75.345,14.312 76.213 C 15.150 76.880,16.390 77.914,17.067 78.512 C 17.744 79.110,19.010 80.141,19.880 80.804 C 21.846 82.300,21.502 82.064,23.261 83.126 C 24.083 83.623,25.841 84.750,27.167 85.630 C 28.493 86.510,29.640 87.253,29.715 87.283 C 30.608 87.629,30.882 89.821,31.001 97.574 C 31.127 105.775,31.318 107.945,32.621 115.970 C 32.975 118.146,33.018 117.972,31.787 119.340 C 30.092 121.223,26.819 126.344,26.819 127.112 C 26.819 127.814,27.260 127.719,31.331 126.140 C 33.470 125.310,35.923 124.424,36.781 124.172 L 38.342 123.712 41.834 123.710 C 44.079 123.709,45.376 123.758,45.466 123.849 C 45.878 124.260,46.612 123.759,46.431 123.189 C 46.361 122.967,44.901 121.783,42.187 119.748 C 41.283 119.070,40.194 118.483,39.319 118.201 C 39.041 118.112,38.814 117.990,38.814 117.931 C 38.814 117.871,38.452 117.687,38.010 117.522 C 37.097 117.180,37.146 117.276,36.871 115.296 C 36.184 110.351,35.923 107.832,35.724 104.247 L 35.604 102.092 36.115 100.339 C 36.778 98.059,39.352 89.577,39.391 89.545 C 39.407 89.531,39.784 89.572,40.229 89.636 C 42.215 89.924,49.026 89.644,51.818 89.160 C 52.855 88.981,53.725 88.855,53.750 88.881 C 54.026 89.156,54.164 91.046,54.314 96.563 C 54.482 102.750,54.986 106.050,57.090 114.723 L 57.572 116.709 55.955 118.429 C 55.065 119.375,53.959 120.603,53.496 121.159 C 53.033 121.715,52.199 122.672,51.644 123.285 C 50.493 124.557,50.402 125.173,51.385 125.035 C 52.175 124.925,61.376 122.763,61.518 122.655 C 62.039 122.258,67.741 121.767,70.061 121.919 C 71.700 122.026,72.002 121.908,71.942 121.185 C 71.871 120.339,67.568 117.739,64.218 116.519 C 61.277 115.447,61.521 115.759,60.741 112.062 C 59.009 103.858,58.891 101.403,59.970 95.957 C 60.355 94.013,62.204 87.423,62.617 86.523 C 62.955 85.788,65.284 83.817,66.670 83.095 C 69.841 81.443,74.281 76.990,76.960 72.776 C 77.643 71.701,78.517 70.489,78.901 70.081 C 80.723 68.150,83.298 63.989,85.949 58.693 C 86.804 56.985,88.815 51.987,90.124 48.316 C 91.911 43.307,92.492 42.094,94.169 39.867 C 95.507 38.092,95.704 37.959,97.716 37.478 C 101.266 36.630,104.835 35.081,106.979 33.457 C 107.519 33.048,107.986 32.739,108.018 32.771 C 108.126 32.879,109.589 36.714,110.177 38.429 C 113.942 49.422,114.152 59.010,110.796 66.703 C 110.131 68.228,110.250 68.882,111.151 68.647 C 111.394 68.583,112.534 66.443,112.534 66.050 C 112.534 65.989,112.650 65.791,112.793 65.610 C 112.936 65.428,113.152 64.890,113.273 64.412 C 113.395 63.935,113.818 62.544,114.214 61.321 C 118.601 47.758,118.966 38.640,115.547 28.077 C 114.487 24.803,114.404 24.340,114.700 23.315 C 115.346 21.077,114.850 16.310,113.619 12.926 C 110.600 4.628,101.262 -1.096,92.842 0.190 M98.191 1.554 C 106.860 3.157,113.620 11.305,113.610 20.138 C 113.609 21.033,113.572 21.901,113.527 22.068 L 113.446 22.370 113.038 22.027 C 112.807 21.832,112.542 21.718,112.425 21.763 C 112.311 21.806,111.941 21.904,111.601 21.980 C 109.586 22.430,107.349 25.071,106.660 27.814 L 106.431 28.726 106.932 29.992 C 107.515 31.464,107.568 31.298,106.198 32.330 C 104.119 33.896,100.543 35.455,97.324 36.197 C 94.324 36.888,93.455 37.687,91.397 41.644 C 90.567 43.240,90.019 44.570,88.953 47.574 C 86.544 54.361,84.078 59.779,81.346 64.286 C 78.141 69.575,76.029 71.560,72.035 73.041 C 71.173 73.361,71.088 73.426,71.051 73.803 C 70.959 74.734,71.806 74.708,73.956 73.713 L 75.069 73.197 74.645 73.813 C 73.017 76.179,68.123 80.980,67.735 80.592 C 67.499 80.356,67.288 80.445,66.509 81.110 C 64.334 82.966,62.205 83.361,60.069 82.305 C 58.752 81.654,57.090 80.097,56.947 79.380 C 56.710 78.189,56.611 78.157,54.890 78.711 C 52.673 79.425,49.628 79.418,47.991 78.695 C 46.218 77.913,44.100 74.587,44.006 72.439 C 43.986 71.995,43.962 71.588,43.953 71.536 C 43.920 71.358,42.977 71.254,42.820 71.412 C 42.255 71.977,39.033 71.084,37.755 70.009 C 37.130 69.483,37.214 69.347,38.279 69.165 C 41.447 68.621,44.573 65.222,44.717 62.163 L 44.776 60.916 45.987 60.916 C 49.777 60.916,52.582 58.594,53.426 54.758 C 53.733 53.360,53.673 51.055,53.305 50.119 C 53.235 49.941,53.339 49.890,53.873 49.838 C 55.386 49.693,56.679 48.810,58.449 46.715 C 60.201 44.641,60.648 43.430,60.693 40.633 L 60.714 39.286 62.129 39.285 C 64.385 39.284,65.818 38.847,68.145 37.451 C 68.749 37.089,69.364 36.792,69.513 36.792 C 70.125 36.792,72.605 34.024,73.539 32.298 C 74.862 29.855,75.722 27.082,77.228 20.418 C 78.751 13.673,81.046 9.249,84.899 5.623 C 87.202 3.457,91.223 1.622,93.673 1.618 C 94.010 1.618,94.343 1.561,94.414 1.493 C 94.718 1.197,96.409 1.224,98.191 1.554 M95.675 15.132 C 94.089 15.953,93.745 18.786,95.069 20.129 C 96.530 21.611,98.519 21.036,99.586 18.823 C 100.707 16.497,97.991 13.934,95.675 15.132 M150.575 23.282 L 145.081 28.774 158.524 28.808 L 171.968 28.842 171.968 67.453 L 171.968 106.063 158.536 106.098 L 145.104 106.132 150.550 111.627 L 155.997 117.122 177.591 117.119 L 199.185 117.116 201.513 114.727 C 202.793 113.413,205.190 110.970,206.840 109.299 C 208.489 107.627,209.838 106.216,209.838 106.162 C 209.838 106.108,203.804 106.065,196.429 106.065 L 183.019 106.065 183.019 67.453 L 183.019 28.841 196.429 28.841 C 205.635 28.841,209.838 28.797,209.838 28.701 C 209.838 28.623,207.426 26.137,204.477 23.175 L 199.116 17.790 177.593 17.790 L 156.070 17.790 150.575 23.282 M231.901 23.228 L 226.404 28.684 226.453 58.109 C 226.507 90.301,226.459 88.388,227.294 92.123 C 233.197 118.526,268.575 126.004,284.871 104.293 C 300.485 83.491,286.507 53.396,260.613 52.068 L 258.895 51.980 258.895 57.641 L 258.895 63.302 260.276 63.386 C 268.877 63.909,277.675 71.210,279.788 79.576 C 283.218 93.156,273.058 106.000,258.895 105.987 C 248.207 105.977,239.918 99.130,237.779 88.544 C 237.565 87.485,237.542 84.774,237.473 52.585 L 237.399 17.771 231.901 23.228 M53.044 25.675 C 60.387 26.369,65.637 27.903,70.524 30.781 L 71.843 31.558 71.447 32.244 C 69.954 34.829,66.873 37.114,64.035 37.742 C 62.237 38.140,60.459 38.064,60.334 37.584 C 60.287 37.407,60.145 37.332,59.856 37.332 C 59.240 37.332,59.159 37.618,59.396 38.949 C 59.647 40.358,59.477 42.531,59.026 43.674 C 57.989 46.307,54.064 49.385,52.686 48.647 C 51.868 48.210,51.440 49.064,51.961 50.093 C 52.995 52.137,52.279 55.981,50.506 57.904 C 49.084 59.447,46.431 60.123,44.265 59.493 C 43.363 59.231,42.992 59.376,42.992 59.990 C 42.992 60.281,43.067 60.422,43.245 60.469 C 43.896 60.639,43.659 62.815,42.840 64.201 C 41.379 66.673,39.425 67.976,37.135 68.006 C 35.941 68.021,35.774 68.054,35.609 68.301 C 35.402 68.613,35.551 69.046,35.913 69.185 C 36.503 69.411,35.623 71.203,34.449 72.165 C 32.588 73.689,29.877 73.958,28.849 72.719 C 28.350 72.117,27.469 72.756,27.745 73.519 C 28.416 75.374,24.424 78.428,21.222 78.511 C 19.144 78.565,18.075 77.924,15.083 74.833 C 14.311 74.035,13.611 73.352,13.527 73.315 C 13.231 73.184,10.541 69.964,9.408 68.384 C 3.063 59.539,0.706 52.974,1.213 45.565 C 1.378 43.144,1.589 42.475,2.201 42.432 C 2.362 42.421,2.827 42.397,3.235 42.379 C 5.697 42.270,9.712 41.441,13.313 40.299 C 18.585 38.627,19.248 38.348,22.782 36.318 C 24.937 35.079,29.069 32.282,32.834 29.513 C 36.796 26.599,45.449 24.956,53.044 25.675 M311.658 30.235 C 305.669 32.217,306.988 40.903,313.278 40.903 C 320.406 40.903,320.602 30.296,313.477 30.093 C 312.680 30.071,311.993 30.124,311.658 30.235 M35.758 35.641 C 34.985 35.978,34.723 36.773,34.417 39.699 C 34.149 42.271,36.034 43.134,39.446 42.002 C 41.243 41.405,41.644 41.054,41.644 40.077 C 41.644 38.551,40.579 37.960,38.881 38.544 C 38.451 38.693,38.092 38.814,38.085 38.814 C 38.078 38.814,38.093 38.314,38.119 37.702 C 38.192 35.937,37.156 35.033,35.758 35.641 M16.375 43.554 C 15.829 43.855,15.501 44.260,15.420 44.732 C 15.374 44.998,15.161 45.789,14.946 46.491 C 13.817 50.175,14.881 51.162,18.935 50.194 C 21.766 49.518,22.237 49.206,22.237 48.012 C 22.237 46.712,20.989 46.102,19.272 46.563 C 18.865 46.673,18.520 46.763,18.507 46.764 C 18.493 46.765,18.539 46.569,18.608 46.328 C 19.154 44.422,17.814 42.757,16.375 43.554 M312.963 57.396 L 307.547 62.770 307.547 89.943 L 307.547 117.116 313.005 117.116 L 318.464 117.116 318.464 84.569 C 318.464 66.668,318.444 52.022,318.421 52.022 C 318.398 52.022,315.942 54.440,312.963 57.396 M352.358 52.380 C 346.246 53.113,341.899 55.856,338.385 61.195 C 330.863 72.627,336.741 86.975,350.094 89.781 C 351.543 90.086,351.619 90.088,366.846 90.170 C 382.691 90.255,382.556 90.250,384.166 90.843 C 391.074 93.389,390.401 103.295,383.154 105.747 C 382.445 105.986,381.364 106.000,358.693 106.065 L 334.973 106.132 340.424 111.628 L 345.875 117.125 364.481 117.085 L 383.086 117.045 384.542 116.738 C 389.703 115.646,393.450 113.066,396.619 108.423 C 403.228 98.741,400.033 86.189,389.690 81.197 C 385.724 79.283,386.400 79.345,368.396 79.240 C 358.862 79.185,352.828 79.099,352.493 79.015 C 351.112 78.668,350.677 78.513,349.798 78.054 C 343.900 74.971,345.607 65.281,352.353 63.549 C 353.059 63.367,355.991 63.342,376.578 63.342 C 389.460 63.342,400.000 63.297,400.000 63.241 C 400.000 63.185,397.559 60.698,394.575 57.715 L 389.150 52.291 370.956 52.311 C 360.950 52.322,352.581 52.353,352.358 52.380 M27.830 53.752 C 26.433 54.606,26.027 58.598,27.210 59.839 C 28.233 60.912,29.389 60.881,32.250 59.704 C 34.885 58.621,35.722 57.655,35.174 56.332 C 34.786 55.396,33.371 55.036,32.565 55.670 C 32.200 55.957,30.162 56.892,30.080 56.810 C 30.055 56.784,30.099 56.531,30.178 56.246 C 30.719 54.298,29.338 52.831,27.830 53.752 M118.812 72.114 C 115.953 72.362,114.589 73.785,113.870 77.269 C 113.108 80.963,113.713 83.449,116.386 87.601 C 118.393 90.719,119.053 92.074,118.958 92.882 C 118.526 96.523,109.680 104.927,104.582 106.538 C 101.675 107.457,100.191 107.187,98.414 105.416 C 93.351 100.373,86.418 97.976,83.383 100.220 C 83.145 100.395,82.785 100.645,82.582 100.775 C 81.869 101.229,81.482 103.134,81.492 106.132 C 81.506 110.227,82.722 113.769,85.586 118.053 C 90.889 125.987,103.529 131.396,113.636 130.058 C 114.179 129.986,114.956 129.898,115.364 129.862 C 120.699 129.394,131.437 122.685,135.980 116.981 C 139.120 113.039,141.485 107.350,142.241 101.916 C 142.718 98.490,142.265 91.977,141.518 91.515 C 141.453 91.475,141.147 90.654,140.837 89.690 C 137.807 80.274,126.722 71.427,118.812 72.114 M121.335 73.931 C 128.700 75.539,136.515 82.493,138.968 89.623 C 141.393 96.668,141.326 101.895,138.728 108.423 C 136.133 114.946,132.813 118.833,125.959 123.376 C 116.425 129.696,107.037 130.198,96.605 124.947 C 90.797 122.023,87.825 119.166,85.248 114.027 C 82.680 108.906,82.406 102.356,84.724 101.475 C 87.837 100.291,92.705 102.355,97.283 106.801 C 98.050 107.545,98.872 108.337,99.111 108.562 C 100.107 109.498,102.052 109.794,102.250 109.039 C 102.320 108.771,102.663 108.630,103.253 108.627 C 105.083 108.618,108.243 107.049,111.425 104.571 C 114.814 101.931,117.643 99.110,118.830 97.187 C 119.179 96.622,119.543 96.110,119.640 96.050 C 120.219 95.691,120.687 94.295,120.686 92.925 C 120.686 91.322,120.353 90.563,118.088 86.995 C 115.930 83.595,115.619 82.891,115.369 80.850 C 115.058 78.315,116.064 75.002,117.363 74.281 C 118.363 73.726,119.809 73.598,121.335 73.931 M130.749 93.015 C 130.552 93.251,130.167 93.690,129.892 93.992 L 129.394 94.542 128.541 93.699 C 127.461 92.633,127.290 92.628,126.225 93.630 C 124.933 94.847,124.924 95.005,126.086 96.223 L 126.822 96.994 126.012 97.743 C 124.892 98.778,124.889 99.051,125.987 100.178 C 126.968 101.184,127.143 101.279,127.640 101.073 C 127.856 100.984,128.032 100.858,128.032 100.793 C 128.032 100.612,128.987 99.596,129.156 99.596 C 129.238 99.596,129.650 99.937,130.071 100.354 C 131.080 101.352,131.405 101.317,132.596 100.076 C 133.523 99.110,133.599 98.815,133.057 98.276 C 132.856 98.075,132.494 97.694,132.254 97.430 L 131.818 96.948 132.620 96.097 C 133.605 95.052,133.631 94.789,132.839 93.826 C 131.729 92.475,131.331 92.321,130.749 93.015 M102.921 111.328 C 101.458 112.121,101.853 115.020,103.492 115.511 C 104.619 115.849,105.930 114.587,105.930 113.165 C 105.930 111.643,104.241 110.612,102.921 111.328 M122.671 112.204 C 122.002 112.673,123.508 115.305,124.602 115.580 C 125.324 115.761,125.908 114.994,125.557 114.326 C 124.825 112.930,123.269 111.786,122.671 112.204 M109.680 112.504 C 107.856 113.707,108.435 116.178,110.539 116.171 C 111.989 116.166,112.907 114.446,112.194 113.068 C 111.799 112.303,110.445 111.999,109.680 112.504 M125.830 116.149 C 125.490 116.525,125.543 117.279,125.936 117.648 C 126.481 118.160,127.520 117.839,127.697 117.104 C 127.906 116.235,126.433 115.482,125.830 116.149 M102.412 118.637 C 100.792 119.727,101.523 122.439,103.437 122.439 C 104.976 122.439,106.146 120.208,105.178 119.121 C 104.498 118.356,103.174 118.125,102.412 118.637 M109.067 119.412 C 107.995 119.957,107.673 120.963,108.195 122.142 C 109.001 123.964,111.492 123.432,111.921 121.347 C 112.217 119.912,110.445 118.712,109.067 119.412 " stroke="none" fill="#000000" fill-rule="evenodd"></path></g></svg>